<svg width="22" height="6" viewBox="0 0 22 6" fill="none" xmlns="http://www.w3.org/2000/svg">
<path d="M1.29102 2.22265L9.29492 5.35156C9.83398 5.5625 10.4785 5.82031 11.0058 5.82031C11.5215 5.82031 12.1777 5.5625 12.7168 5.35156L20.7089 2.22265C21.1543 2.04687 21.4472 1.64843 21.4472 1.21484C21.4472 0.523438 20.9433 0.0078125 20.2636 0.0078125C19.9121 0.0078125 19.4433 0.207032 19.1504 0.312501L10.1738 3.83984H11.8261L2.84961 0.312501C2.55664 0.207032 2.09961 0.0078125 1.73632 0.0078125C1.05664 0.0078125 0.552734 0.523438 0.552734 1.21484C0.552734 1.64843 0.845703 2.04687 1.29102 2.22265Z" fill="white"/>
</svg>
