<svg width="20" height="126" viewBox="0 0 20 126" fill="none" xmlns="http://www.w3.org/2000/svg">
<path d="M8.125 107.734V105.398L13.4062 103.445L8.125 101.57V99.3281L16 102.383V104.516L8.125 107.734ZM13.8594 99.1869C13.1875 99.1869 12.6484 98.9707 12.2422 98.5384C11.8307 98.1009 11.5729 97.5332 11.4688 96.8353L11.1875 94.8978C11.1302 94.502 10.9427 94.3041 10.625 94.3041C10.3281 94.3041 10.0833 94.4186 9.89062 94.6478C9.69792 94.8718 9.60156 95.1999 9.60156 95.6322C9.60156 96.0749 9.72396 96.4291 9.96875 96.6947C10.2135 96.9603 10.5182 97.1088 10.8828 97.14L10.4766 99.0306C10.1589 98.9994 9.85156 98.903 9.55469 98.7416C9.2526 98.5801 8.97656 98.364 8.72656 98.0931C8.47135 97.8171 8.26823 97.4681 8.11719 97.0463C7.96615 96.6192 7.89063 96.153 7.89063 95.6478C7.89063 95.0436 7.97135 94.5176 8.13281 94.0697C8.29427 93.6166 8.51563 93.2598 8.79688 92.9994C9.07813 92.739 9.39323 92.5463 9.74219 92.4213C10.0911 92.291 10.4714 92.2259 10.8828 92.2259H14.75C15.2188 92.2259 15.6354 92.1947 16 92.1322V94.0853C15.7656 94.1374 15.4505 94.1634 15.0547 94.1634C15.3984 94.3822 15.6797 94.6869 15.8984 95.0775C16.1172 95.4681 16.2266 95.9369 16.2266 96.4838C16.2266 97.291 15.9948 97.9447 15.5312 98.4447C15.0625 98.9395 14.5052 99.1869 13.8594 99.1869ZM13.7266 97.0619C13.9766 97.0619 14.1927 96.9733 14.375 96.7963C14.5521 96.614 14.6406 96.3614 14.6406 96.0384C14.6406 95.5332 14.4974 95.1192 14.2109 94.7963C13.9245 94.4681 13.4583 94.3041 12.8125 94.3041H12.4609L12.7344 96.0853C12.776 96.377 12.8802 96.614 13.0469 96.7963C13.2083 96.9733 13.4349 97.0619 13.7266 97.0619ZM12.0469 91.3425C10.8802 91.3425 9.90365 90.9883 9.11719 90.28C8.33073 89.5717 7.9375 88.668 7.9375 87.5691C7.9375 86.9597 8.03646 86.4727 8.23438 86.1081C8.42708 85.7383 8.65365 85.4831 8.91406 85.3425H4.41406V83.2488H14.5781C15.099 83.2488 15.5729 83.2279 16 83.1863V85.2175C15.7396 85.2696 15.4349 85.2956 15.0859 85.2956C15.4141 85.4779 15.6823 85.7644 15.8906 86.155C16.0938 86.5456 16.1953 86.9961 16.1953 87.5066C16.1953 88.6211 15.8047 89.5404 15.0234 90.2644C14.237 90.9831 13.2448 91.3425 12.0469 91.3425ZM12.0469 89.2019C12.7344 89.2019 13.2813 89.0196 13.6875 88.655C14.0885 88.2904 14.2891 87.8217 14.2891 87.2488C14.2891 86.6915 14.0859 86.2305 13.6797 85.8659C13.2734 85.4961 12.724 85.3113 12.0313 85.3113C11.349 85.3113 10.8151 85.4935 10.4297 85.8581C10.0391 86.2227 9.84375 86.6863 9.84375 87.2488C9.84375 87.8113 10.0417 88.2774 10.4375 88.6472C10.8281 89.017 11.3646 89.2019 12.0469 89.2019ZM12.0625 82.17C10.8542 82.17 9.85677 81.7794 9.07031 80.9981C8.28385 80.2117 7.89063 79.2273 7.89063 78.045C7.89063 76.8627 8.28385 75.8809 9.07031 75.0997C9.85677 74.3132 10.8542 73.92 12.0625 73.92C13.2656 73.92 14.263 74.3132 15.0547 75.0997C15.8464 75.8861 16.2422 76.8679 16.2422 78.045C16.2422 79.2221 15.8464 80.2039 15.0547 80.9903C14.263 81.7768 13.2656 82.17 12.0625 82.17ZM12.0625 80.045C12.7604 80.045 13.3099 79.8497 13.7109 79.4591C14.1068 79.0684 14.3047 78.5971 14.3047 78.045C14.3047 77.4877 14.1094 77.0164 13.7188 76.6309C13.3229 76.2403 12.7708 76.045 12.0625 76.045C11.3542 76.045 10.8047 76.2403 10.4141 76.6309C10.0182 77.0164 9.82031 77.4877 9.82031 78.045C9.82031 78.6023 10.0182 79.0763 10.4141 79.4669C10.8047 79.8523 11.3542 80.045 12.0625 80.045ZM12.0469 73.4663C10.8802 73.4663 9.90365 73.1121 9.11719 72.4038C8.33073 71.6954 7.9375 70.7918 7.9375 69.6928C7.9375 69.0834 8.03646 68.5965 8.23438 68.2319C8.42708 67.8621 8.65365 67.6069 8.91406 67.4663H4.41406V65.3725H14.5781C15.099 65.3725 15.5729 65.3517 16 65.31V67.3413C15.7396 67.3933 15.4349 67.4194 15.0859 67.4194C15.4141 67.6017 15.6823 67.8881 15.8906 68.2788C16.0938 68.6694 16.1953 69.1199 16.1953 69.6303C16.1953 70.7449 15.8047 71.6642 15.0234 72.3881C14.237 73.1069 13.2448 73.4663 12.0469 73.4663ZM12.0469 71.3256C12.7344 71.3256 13.2813 71.1433 13.6875 70.7788C14.0885 70.4142 14.2891 69.9454 14.2891 69.3725C14.2891 68.8152 14.0859 68.3543 13.6797 67.9897C13.2734 67.6199 12.724 67.435 12.0313 67.435C11.349 67.435 10.8151 67.6173 10.4297 67.9819C10.0391 68.3465 9.84375 68.81 9.84375 69.3725C9.84375 69.935 10.0417 70.4011 10.4375 70.7709C10.8281 71.1407 11.3646 71.3256 12.0469 71.3256ZM13.8594 64.2313C13.1875 64.2313 12.6484 64.0151 12.2422 63.5828C11.8307 63.1453 11.5729 62.5776 11.4688 61.8797L11.1875 59.9422C11.1302 59.5464 10.9427 59.3484 10.625 59.3484C10.3281 59.3484 10.0833 59.463 9.89063 59.6922C9.69792 59.9161 9.60156 60.2443 9.60156 60.6766C9.60156 61.1193 9.72396 61.4734 9.96875 61.7391C10.2135 62.0047 10.5182 62.1531 10.8828 62.1844L10.4766 64.075C10.1589 64.0438 9.85156 63.9474 9.55469 63.7859C9.2526 63.6245 8.97656 63.4083 8.72656 63.1375C8.47135 62.8615 8.26823 62.5125 8.11719 62.0906C7.96615 61.6635 7.89063 61.1974 7.89063 60.6922C7.89063 60.088 7.97135 59.562 8.13281 59.1141C8.29427 58.6609 8.51563 58.3042 8.79688 58.0438C9.07813 57.7833 9.39323 57.5906 9.74219 57.4656C10.0911 57.3354 10.4714 57.2703 10.8828 57.2703H14.75C15.2188 57.2703 15.6354 57.2391 16 57.1766V59.1297C15.7656 59.1818 15.4505 59.2078 15.0547 59.2078C15.3984 59.4266 15.6797 59.7313 15.8984 60.1219C16.1172 60.5125 16.2266 60.9813 16.2266 61.5281C16.2266 62.3354 15.9948 62.9891 15.5313 63.4891C15.0625 63.9839 14.5052 64.2313 13.8594 64.2313ZM13.7266 62.1063C13.9766 62.1063 14.1927 62.0177 14.375 61.8406C14.5521 61.6583 14.6406 61.4057 14.6406 61.0828C14.6406 60.5776 14.4974 60.1635 14.2109 59.8406C13.9245 59.5125 13.4583 59.3484 12.8125 59.3484H12.4609L12.7344 61.1297C12.776 61.4214 12.8802 61.6583 13.0469 61.8406C13.2083 62.0177 13.4349 62.1063 13.7266 62.1063ZM16 55.7697H8.125V53.6994H9.29688C9.05208 53.5848 8.84375 53.4364 8.67188 53.2541C8.49479 53.0666 8.36719 52.866 8.28906 52.6525C8.20573 52.4338 8.14844 52.2306 8.11719 52.0431C8.08073 51.8504 8.0625 51.6577 8.0625 51.465C8.0625 51.34 8.07292 51.1733 8.09375 50.965H10.2422C10.2005 51.1785 10.1797 51.3921 10.1797 51.6056C10.1797 51.8921 10.2188 52.1525 10.2969 52.3869C10.3698 52.616 10.4896 52.8296 10.6563 53.0275C10.8177 53.2202 11.0469 53.3713 11.3438 53.4806C11.6354 53.5848 11.987 53.6369 12.3984 53.6369H16V55.7697ZM13.8594 50.5425C13.1875 50.5425 12.6484 50.3264 12.2422 49.8941C11.8307 49.4566 11.5729 48.8889 11.4688 48.1909L11.1875 46.2534C11.1302 45.8576 10.9427 45.6597 10.625 45.6597C10.3281 45.6597 10.0833 45.7743 9.89063 46.0034C9.69792 46.2274 9.60156 46.5555 9.60156 46.9878C9.60156 47.4305 9.72396 47.7847 9.96875 48.0503C10.2135 48.3159 10.5182 48.4644 10.8828 48.4956L10.4766 50.3862C10.1589 50.355 9.85156 50.2586 9.55469 50.0972C9.2526 49.9357 8.97656 49.7196 8.72656 49.4487C8.47135 49.1727 8.26823 48.8237 8.11719 48.4019C7.96615 47.9748 7.89063 47.5086 7.89063 47.0034C7.89063 46.3993 7.97135 45.8732 8.13281 45.4253C8.29427 44.9722 8.51563 44.6154 8.79688 44.355C9.07813 44.0946 9.39323 43.9019 9.74219 43.7769C10.0911 43.6467 10.4714 43.5816 10.8828 43.5816H14.75C15.2188 43.5816 15.6354 43.5503 16 43.4878V45.4409C15.7656 45.493 15.4505 45.5191 15.0547 45.5191C15.3984 45.7378 15.6797 46.0425 15.8984 46.4331C16.1172 46.8237 16.2266 47.2925 16.2266 47.8394C16.2266 48.6467 15.9948 49.3003 15.5313 49.8003C15.0625 50.2951 14.5052 50.5425 13.8594 50.5425ZM13.7266 48.4175C13.9766 48.4175 14.1927 48.329 14.375 48.1519C14.5521 47.9696 14.6406 47.717 14.6406 47.3941C14.6406 46.8889 14.4974 46.4748 14.2109 46.1519C13.9245 45.8237 13.4583 45.6597 12.8125 45.6597H12.4609L12.7344 47.4409C12.776 47.7326 12.8802 47.9696 13.0469 48.1519C13.2083 48.329 13.4349 48.4175 13.7266 48.4175ZM15.6719 41.87C15.4219 42.1148 15.1042 42.2372 14.7188 42.2372C14.3333 42.2372 14.013 42.0992 13.7578 41.8231C13.5026 41.5419 13.375 41.1955 13.375 40.7841C13.375 40.2997 13.5495 39.9143 13.8984 39.6278C14.2474 39.3414 14.6875 39.1981 15.2188 39.1981C15.6719 39.1981 16.0885 39.258 16.4688 39.3778C16.849 39.4976 17.1667 39.6539 17.4219 39.8466C17.6771 40.0341 17.8984 40.2554 18.0859 40.5106C18.2786 40.7606 18.4219 41.0106 18.5156 41.2606C18.6094 41.5106 18.6719 41.7606 18.7031 42.0106H17.6797C17.5964 41.6252 17.3932 41.2815 17.0703 40.9794C16.7474 40.6721 16.375 40.5106 15.9531 40.495C16.0156 40.5783 16.0469 40.7164 16.0469 40.9091C16.0469 41.2997 15.9219 41.62 15.6719 41.87ZM5.55469 34.6734C5.1901 34.6734 4.8776 34.5458 4.61719 34.2906C4.35677 34.0302 4.22656 33.7203 4.22656 33.3609C4.22656 32.9964 4.35677 32.6865 4.61719 32.4313C4.8724 32.176 5.1849 32.0484 5.55469 32.0484C5.90885 32.0484 6.21354 32.176 6.46875 32.4313C6.72396 32.6865 6.85156 32.9964 6.85156 33.3609C6.85156 33.7203 6.72396 34.0302 6.46875 34.2906C6.21354 34.5458 5.90885 34.6734 5.55469 34.6734ZM16 34.4234H8.125V32.2906H16V34.4234ZM16 30.6572H8.125V28.5869H9.10156C8.71615 28.3577 8.42448 28.0374 8.22656 27.6259C8.02344 27.2093 7.92188 26.7744 7.92188 26.3213C7.92188 25.389 8.21354 24.6806 8.79688 24.1963C9.375 23.7119 10.1224 23.4697 11.0391 23.4697H16V25.5947H11.4063C10.9375 25.5947 10.5599 25.7171 10.2734 25.9619C9.98698 26.2015 9.84375 26.566 9.84375 27.0556C9.84375 27.5088 9.9974 27.8681 10.3047 28.1338C10.612 28.3942 11 28.5244 11.4688 28.5244H16V30.6572ZM12.0469 22.5394C10.8802 22.5394 9.90365 22.1852 9.11719 21.4769C8.33073 20.7685 7.9375 19.8649 7.9375 18.7659C7.9375 18.1566 8.03646 17.6696 8.23438 17.305C8.42708 16.9352 8.65365 16.68 8.91406 16.5394H4.41406V14.4456H14.5781C15.099 14.4456 15.5729 14.4248 16 14.3831V16.4144C15.7396 16.4665 15.4349 16.4925 15.0859 16.4925C15.4141 16.6748 15.6823 16.9613 15.8906 17.3519C16.0938 17.7425 16.1953 18.193 16.1953 18.7034C16.1953 19.818 15.8047 20.7373 15.0234 21.4613C14.237 22.18 13.2448 22.5394 12.0469 22.5394ZM12.0469 20.3988C12.7344 20.3988 13.2813 20.2165 13.6875 19.8519C14.0885 19.4873 14.2891 19.0185 14.2891 18.4456C14.2891 17.8883 14.0859 17.4274 13.6797 17.0628C13.2734 16.693 12.724 16.5081 12.0313 16.5081C11.349 16.5081 10.8151 16.6904 10.4297 17.055C10.0391 17.4196 9.84375 17.8831 9.84375 18.4456C9.84375 19.0081 10.0417 19.4743 10.4375 19.8441C10.8281 20.2139 11.3646 20.3988 12.0469 20.3988ZM5.55469 13.0309C5.1901 13.0309 4.8776 12.9033 4.61719 12.6481C4.35677 12.3877 4.22656 12.0778 4.22656 11.7184C4.22656 11.3539 4.35677 11.044 4.61719 10.7887C4.8724 10.5335 5.1849 10.4059 5.55469 10.4059C5.90885 10.4059 6.21354 10.5335 6.46875 10.7887C6.72396 11.044 6.85156 11.3539 6.85156 11.7184C6.85156 12.0778 6.72396 12.3877 6.46875 12.6481C6.21354 12.9033 5.90885 13.0309 5.55469 13.0309ZM16 12.7809H8.125V10.6481H16V12.7809ZM13.8594 9.49125C13.1875 9.49125 12.6484 9.2751 12.2422 8.84281C11.8307 8.40531 11.5729 7.8376 11.4688 7.13969L11.1875 5.20219C11.1302 4.80635 10.9427 4.60844 10.625 4.60844C10.3281 4.60844 10.0833 4.72302 9.89063 4.95219C9.69792 5.17614 9.60156 5.50427 9.60156 5.93656C9.60156 6.37927 9.72396 6.73344 9.96875 6.99906C10.2135 7.26469 10.5182 7.41312 10.8828 7.44437L10.4766 9.335C10.1589 9.30375 9.85156 9.20739 9.55469 9.04594C9.2526 8.88448 8.97656 8.66833 8.72656 8.3975C8.47135 8.12146 8.26823 7.7725 8.11719 7.35062C7.96615 6.92354 7.89063 6.45739 7.89063 5.95219C7.89063 5.34802 7.97135 4.82198 8.13281 4.37406C8.29427 3.92094 8.51563 3.56417 8.79688 3.30375C9.07813 3.04333 9.39323 2.85062 9.74219 2.72562C10.0911 2.59542 10.4714 2.53031 10.8828 2.53031H14.75C15.2188 2.53031 15.6354 2.49906 16 2.43656V4.38969C15.7656 4.44177 15.4505 4.46781 15.0547 4.46781C15.3984 4.68656 15.6797 4.99125 15.8984 5.38187C16.1172 5.7725 16.2266 6.24125 16.2266 6.78812C16.2266 7.59542 15.9948 8.24906 15.5313 8.74906C15.0625 9.24385 14.5052 9.49125 13.8594 9.49125ZM13.7266 7.36625C13.9766 7.36625 14.1927 7.27771 14.375 7.10062C14.5521 6.91833 14.6406 6.66573 14.6406 6.34281C14.6406 5.8376 14.4974 5.42354 14.2109 5.10062C13.9245 4.7725 13.4583 4.60844 12.8125 4.60844H12.4609L12.7344 6.38969C12.776 6.68135 12.8802 6.91833 13.0469 7.10062C13.2083 7.27771 13.4349 7.36625 13.7266 7.36625Z" fill="white"/>
<circle cx="10" cy="120.891" r="5" fill="white"/>
</svg>
