<svg width="145" height="33" viewBox="0 0 145 33" fill="none" xmlns="http://www.w3.org/2000/svg">
<path d="M1.24371 14.1507C22.7248 14.1507 44.2058 14.2046 65.6769 13.4255C83.2121 12.7892 100.721 11.5925 118.256 10.943C124.248 10.7211 130.88 11.4623 136.832 10.5804C138.324 10.3594 136.586 9.30838 136.079 9.12998C133.645 8.27357 130.984 8.18161 128.437 8.18161C95.9979 8.18161 64.1014 18.981 32.8188 26.368C23.0153 28.6829 12.6492 31.7234 2.47101 31.7234C-0.125497 31.7234 1.01064 31.2305 3.58673 30.022C15.4354 24.4633 28.8927 21.6323 41.4657 18.3347C63.4635 12.5652 85.5812 7.35152 108.102 4.08132C117.898 2.65892 127.836 1.24931 137.753 1.09675C139.729 1.06634 142.051 0.707652 143.834 1.59882" stroke="#E64B4A" stroke-width="2" stroke-linecap="round"/>
</svg>
