<svg width="15" height="15" viewBox="0 0 15 15" fill="none" xmlns="http://www.w3.org/2000/svg">
<path d="M14.064 11.643C13.5865 11.6454 13.1172 11.6244 12.6392 11.603C12.6401 8.88871 12.641 6.10496 12.6419 3.32122C12.6143 3.3113 12.5867 3.30138 12.5591 3.29146C8.86424 6.98637 5.16932 10.6813 1.45851 14.3921C1.10083 14.0344 0.772433 13.706 0.418996 13.3526C4.11381 9.65778 7.81268 5.95891 11.5157 2.25584C8.70553 2.25589 5.92398 2.25595 3.17588 2.256C3.17368 1.69128 3.17181 1.21467 3.17005 0.763676C6.76728 0.763603 10.4055 0.763528 14.0565 0.763453C14.0618 4.36679 14.0671 7.99318 14.064 11.643Z" fill="#F6F6F6"/>
</svg>
